<svg xmlns="http://www.w3.org/2000/svg" viewBox="0 0 100 100" width="640" height="640">
  <!-- Channel avatar: the site favicon's devil, scaled to sit inside Telegram's circular crop. -->
  <defs>
    <radialGradient id="glow" cx="50%" cy="45%" r="60%">
      <stop offset="0" stop-color="#1d1530"/>
      <stop offset="1" stop-color="#0b0e19"/>
    </radialGradient>
  </defs>
  <rect width="100" height="100" fill="url(#glow)"/>
  <g transform="translate(50 52) scale(0.86) translate(-50 -50)">
    <path d="M25 35 L15 10 L35 28 Z" fill="#e94560"/>
    <path d="M75 35 L85 10 L65 28 Z" fill="#e94560"/>
    <circle cx="50" cy="52" r="28" fill="#e94560"/>
    <ellipse cx="40" cy="47" rx="5" ry="6" fill="#0b0e19"/>
    <ellipse cx="60" cy="47" rx="5" ry="6" fill="#0b0e19"/>
    <path d="M34 62 Q50 74 66 62" stroke="#0b0e19" stroke-width="3" fill="none" stroke-linecap="round"/>
    <line x1="43" y1="64" x2="43" y2="70" stroke="#0b0e19" stroke-width="2.5" stroke-linecap="round"/>
    <line x1="57" y1="64" x2="57" y2="70" stroke="#0b0e19" stroke-width="2.5" stroke-linecap="round"/>
    <path d="M78 65 Q90 70 88 82 Q86 90 78 85 Q72 80 80 75" stroke="#e94560" stroke-width="3" fill="none" stroke-linecap="round"/>
  </g>
</svg>
